# xmcd
#
# Track frame offsets:
#	150
#	9610
#	20727
#	33300
#	42748
#	54913
#	65726
#	78465
#	90854
#	101117
#	114458
#	126653
#	138703
#	148558
#	160439
#	171335
#	184525
#	197076
#	209206
#	221749
#	233205
#	245613
#	258082
#	271258
#	285788
#	298104
#	309364
#	321337
#	333302
#	347963
#
# Disc length: 4791 seconds
#
# Revision: 1467560006
# Processed by: cddbd v1.5.2PL0 Copyright (c) Steve Scherf et al.
# Submitted via: EZCDAudioConverter 4.0.2.1
#
DISCID=d612b51e
DTITLE=Various Artist - America's Greatest Country Memories, Vol. 4
DYEAR=1900
DGENRE=Country
TTITLE0=Roy Acuff - Blue Eyes Crying in the Rain
TTITLE1=Tex Ritter - The Letter Edge in Black
TTITLE2=Smith, Carl - There's Nothing as Sweet as My Baby
TTITLE3=Cash, Johnny - New Mexico
TTITLE4=Lefty Frizzell - Breakman's Blues
TTITLE5=Marty Robbins - Long Gone Lonesome Blues
TTITLE6=Arnold, Eddie - Molly Darling
TTITLE7=Starr, John - I'll Be a Bachelor Til I Die
TTITLE8=Williams, Hank - Kaw-Liga
TTITLE9=Rose Maddox - Honky Tonkin'
TTITLE10=Sylvain Richard - Lovesick Blues
TTITLE11=Hank Snow - Trouble, Trouble, Trouble
TTITLE12=Johnny And Jack - We Live in Two Different Worlds
TTITLE13=Dickens, Jimmie - I Wish You Didn't Love Me So Much
TTITLE14=Webb Pierce - California Blues
TTITLE15=Rodgers, Jimmie - In the Jailhouse Now
TTITLE16=King, Pee-Wee - The Battle Hymn of the Republic
TTITLE17=Monroe, Bill - Those Gambler's Blues
TTITLE18=Albert Babin - Hey Good Lookin'
TTITLE19=Davis Sisters - Single Girl
TTITLE20=Carter, Wiff - The Tramp's Mother
TTITLE21=Tommy Duncan - The Mississippi River Blues
TTITLE22=Ernest Tubb - Till the End of the World
TTITLE23=Terry Hachey - Cold, Cold Heart
TTITLE24=Dougie Trineer - United by God Separated by Law
TTITLE25=Jimmie Davis - When a Boy from the Mountain
TTITLE26=Paul Brunelle - Queen of My Heart
TTITLE27=Bob Wills - Rockin' Alone in an Old Rockin' Chair
TTITLE28=Vernon Dalhart - The Wreck of the Old '97
TTITLE29=King, Eddie - I Can't Escape from You
EXTD=
EXTT0=
EXTT1=
EXTT2=
EXTT3=
EXTT4=
EXTT5=
EXTT6=
EXTT7=
EXTT8=
EXTT9=
EXTT10=
EXTT11=
EXTT12=
EXTT13=
EXTT14=
EXTT15=
EXTT16=
EXTT17=
EXTT18=
EXTT19=
EXTT20=
EXTT21=
EXTT22=
EXTT23=
EXTT24=
EXTT25=
EXTT26=
EXTT27=
EXTT28=
EXTT29=
PLAYORDER=
